<?xml version="1.0" encoding="utf-8"?>
<!-- Generator: Adobe Illustrator 21.0.0, SVG Export Plug-In . SVG Version: 6.00 Build 0)  -->
<svg version="1.1" id="Layer_1" xmlns="http://www.w3.org/2000/svg" xmlns:xlink="http://www.w3.org/1999/xlink" x="0px" y="0px"
	 viewBox="0 0 50 50" style="enable-background:new 0 0 50 50;" xml:space="preserve">
<style type="text/css">
	.st0{fill:#07294D;}
	.st1{fill:#C41C3F;}
	.st2{fill:#41B552;}
	.st3{fill:#FFC600;}
	.st4{fill:#D7D7D7;}
</style>
<path class="st0" d="M10,45.2c0.1-1.8,0.1-3.3,0.2-3.5c0.1-0.2,0.3-0.3,1.2-0.5c1.7-0.4,1.6-0.5,1.5,1.4c0,0.9-0.1,1.6,0,1.6
	c0,0,0.7-0.3,1.5-0.6c2.1-0.9,5.3-1.7,6.5-1.6l0.5,0l-0.8,1l-0.8,1l-1.7,0.6c-1.9,0.6-4,1.9-6.1,3c-0.7,0.4-1.4,0.7-1.4,0.7
	C10.6,48.3,10,47.5,10,45.2z"/>
<path class="st0" d="M6.2,35.1c0.2-12.3,0.3-16.3,0.5-16.4c0.2-0.2,1.6-0.5,2.4-0.6L9.8,18l0,1.3c0,1.3,0,1.3-0.3,1.3
	c-0.2,0-0.3,0.1-0.4,0.3C9,21.6,9.4,38.5,9.6,38.5c0.1,0,0.5-0.1,0.9-0.2c3.8-1,7.6-0.8,11.4,0.8c0.7,0.3,1.3,0.6,1.3,0.7
	S23.1,40,23,40.1c-0.2,0.2-0.3,0.2-1.4,0c-2.1-0.5-3.2-0.6-5.7-0.5c-3,0.1-5.3,0.5-8.4,1.6c-0.7,0.2-1.2,0.4-1.3,0.4"/>
<path class="st0" d="M22.7,38.4c-2.8-1.2-5.6-1.8-9.3-1.9l-2.5-0.1L10.8,36c-0.1-0.4,0.2-20.6,0.3-21.8l0.1-0.8l0.9-0.3
	c1.7-0.6,4.5-0.7,6.6-0.2c1.9,0.5,4.2,1.4,4.2,1.7c0,0.5-0.2,0.6-1.5,0.4c-2-0.3-4.8-0.2-6.2,0.1c-0.7,0.2-1.3,0.4-1.4,0.4
	c-0.1,0.1,0.1,18.4,0.2,18.5c0,0,0.7,0.1,1.4,0.2c2.8,0.3,5.3,1.2,7.9,2.9c1.5,1,1.6,1.1,1.1,1.5c-0.2,0.2-0.4,0.3-0.4,0.3
	C24,39,23.4,38.7,22.7,38.4z"/>
<path class="st0" d="M45,1.3c0.1,0.1-0.2,0.7-1.2,2.1c-0.5,0.8-1.3,1.9-1.7,2.5c-1.7,2.5-1.7,2.6-3.2,3.2c-0.7,0.3-1.4,0.6-1.4,0.6
	C37.4,9.8,37.6,9.9,38,10c1,0.2,1.1,0.3,0.5,0.9c-0.8,1-2.6,2.8-2.9,3c-0.2,0.1-1.1,0.3-2.1,0.4c-1,0.1-1.9,0.3-1.9,0.3
	s0.6,0.2,1.2,0.4c0.7,0.2,1.3,0.4,1.3,0.4c0.1,0.1-1.8,1.8-3.3,3c-0.4,0.3-1.8,1.5-3.1,2.7c-1.2,1-2.6,2.3-3.5,3
	c-0.8,0.7-0.8,0.8-1.4,2.3c-0.7,1.9-1.1,2.7-1.3,3.3c-0.7,1.4-0.7,1.4-1.4,1.5c-0.3,0.1-0.7,0.1-0.9,0.2c-0.4,0.1-0.4,0-0.4-0.1
	c0-0.2,0.5-1.3,0.6-1.5c0,0,0.2-0.2,0.2-0.4c0.4-0.8,0.5-1,0.6-1.1c0.1-0.1,0.5-0.9,1-1.8c3.1-5.6,3.9-6.8,5.5-8.9
	c1.4-1.9,3.7-4.7,5.9-7.3c0.4-0.4,0.5-0.7,0.4-0.6c-0.5,0.3-2.1,1.8-2.9,2.7c-2.8,3-4.1,4.9-6.1,8.4c-1.1,2.1-1.4,2.4-1.5,2.3
	c-0.1-0.1,0.2-3,0.4-4.2c0.2-1.2,0.6-2.4,1.3-4.2c0.8-2.1,1.7-3.9,1.8-3.9c0.1,0,0.3,0.5,0.6,1.1l0.5,1.1l0.1-0.7
	c0.1-0.4,0.2-1.3,0.4-2.1c0.3-2,0.4-2.2,1.7-3.1C31.1,6,32.7,5,33.7,4.5c1.4-0.7,4.5-1.8,6.7-2.4C42.2,1.7,44.9,1.2,45,1.3"/>
<g id="layer102">
	<path class="st1" d="M21.9,42.9c0.5-0.8,3-3.4,4-4.2c2.8-2.2,5.6-3.4,8.8-3.8c0.7-0.1,1.4-0.2,1.6-0.2c0.3-0.1,0.3-0.2,0.4-8
		c0.1-4.4,0.2-8.5,0.2-9.3l0-1.3l-0.4-0.2L36,15.8l0.5-0.4c0.2-0.2,0.4-0.5,0.4-0.7c0-0.3,1-1.3,1.2-1.2c0.1,0,0.4,0.1,0.7,0.2
		c0.3,0.1,0.6,0.3,0.7,0.4c0.1,0.3,0.4,21,0.3,22.1l-0.1,0.6l-1.4,0.1C37.4,37,36.3,37,35.8,37c-2.5,0-6.7,1.1-9,2.4
		c-1.8,1-4,2.6-4.7,3.6C21.7,43.5,21.5,43.4,21.9,42.9z"/>
</g>
<g id="layer104">
	<path class="st2" d="M39.8,48c-4.3-2.3-8.9-3.6-12.4-4.1c-2.1-0.3-3.7-0.1-5.9,0.6c-0.2,0.1-0.3,0-0.3,0c0-0.2,2.4-1.3,3.6-1.6
		c3.5-1,8-0.5,11.6,1.2c1.5,0.7,1.3,0.8,1.2-1.1l-0.1-1.7l0.5,0.1c0.3,0.1,0.9,0.2,1.4,0.3l0.9,0.2l0.1,0.6c0,0.3,0.1,1.8,0.1,3.4
		c0.1,2.2,1,2.8,0.9,2.8C41.3,48.8,40.6,48.4,39.8,48z"/>
</g>
<g id="layer105">
	<path class="st3" d="M18.7,31.4c0-0.2,0.5-1.3,0.6-1.5c0,0,0.2-0.2,0.2-0.4c0.7-1.3,0.7-1.3,1.6-1.3c0.9,0,1,0.1,0.7,0.5
		c-0.1,0.1-0.2,0.5-0.4,0.8c-0.7,1.6-0.8,1.7-1.5,1.8c-0.3,0.1-0.7,0.1-0.9,0.2C18.8,31.6,18.7,31.5,18.7,31.4z"/>
</g>
<g id="layer106">
	<path class="st4" d="M22,43.5c0-0.1,0.2-0.3,0.4-0.3c0.2-0.1,0.3-0.2,0.3-0.3c0-0.1,0.1-0.1,0.1-0.1c0.1,0,0.4-0.2,0.7-0.4
		c0.3-0.2,0.6-0.4,0.6-0.4s0.3-0.2,0.5-0.3c0.5-0.3,3.1-1.7,3.2-1.7c0,0,0.3-0.1,0.5-0.2c3.2-1.5,7.9-1.9,11.7-0.8
		C40.6,38.9,41,39,41,39c0.1-0.1,0.3-13.1,0.3-15.6c0-2,0-2-0.3-2.1c-0.4-0.2-0.5-0.4-0.5-1.6l0-1l0.6,0c0.7,0,2.3,0.3,2.6,0.5
		c0.2,0.2,0.4,4.2,0.5,14.7l0.1,8.2h-0.3c-0.2,0-0.8-0.2-1.4-0.4c-1.4-0.5-2.8-0.9-4.1-1.1c-0.5-0.1-1.3-0.2-1.6-0.3
		c-1-0.2-5.2-0.1-6.5,0.1c-1.7,0.3-2.4,0.5-3.3,0.8c-1.2,0.4-3.6,1.6-4.4,2.2C22.2,43.8,21.9,43.8,22,43.5z"/>
</g>
</svg>
