<!DOCTYPE svg PUBLIC "-//W3C//DTD SVG 20010904//EN" "http://www.w3.org/TR/2001/REC-SVG-20010904/DTD/svg10.dtd">
<svg version="1.0" xmlns="http://www.w3.org/2000/svg" width="877px" height="360px" viewBox="0 0 8770 3600" preserveAspectRatio="xMidYMid meet">
<g id="layer101" fill="#c31c3f" stroke="none">
<path d="M1232 3008 c39 -56 229 -241 308 -299 215 -159 428 -244 675 -270 55 -6 109 -12 121 -14 20 -4 20 -12 32 -572 7 -312 12 -611 12 -665 l0 -96 -32 -12 -33 -11 35 -32 c19 -17 34 -38 32 -48 -3 -20 75 -92 93 -85 8 3 32 10 54 16 22 6 45 19 50 28 10 19 32 1499 24 1583 l-5 46 -111 6 c-62 4 -145 7 -185 7 -194 0 -510 77 -692 170 -139 70 -306 189 -358 255 -30 37 -47 31 -20 -7z"/>
</g>
<g id="layer102" fill="#41b552" stroke="none">
<path d="M2535 3375 c-327 -162 -609 -255 -880 -291 -162 -22 -287 -10 -452 41 -13 4 -23 3 -23 -1 0 -14 186 -90 275 -114 270 -70 613 -37 892 86 112 50 101 60 95 -78 l-5 -121 39 7 c21 4 69 14 106 23 l67 16 5 41 c3 23 7 132 10 244 5 157 3 202 -7 202 -6 0 -61 -25 -122 -55z"/>
</g>
<g id="layer103" fill="#ffc600" stroke="none">
<path d="M990 2186 c0 -17 37 -96 49 -106 10 -8 42 -63 48 -82 3 -10 9 -18 14 -18 5 0 9 -4 9 -8 0 -8 89 -164 107 -188 8 -10 18 -28 45 -77 7 -12 15 -24 18 -27 3 -3 17 -26 30 -52 14 -27 28 -48 32 -48 5 0 8 -5 8 -10 0 -15 144 -238 177 -275 10 -11 34 -40 53 -65 19 -25 40 -51 47 -58 7 -7 29 -34 50 -60 21 -25 47 -56 58 -68 11 -12 58 -65 105 -119 47 -54 108 -123 137 -153 29 -31 50 -58 48 -60 -2 -3 -35 20 -72 51 -102 83 -290 286 -368 396 -22 31 -45 62 -52 69 -7 7 -13 17 -13 22 0 5 -6 15 -12 22 -12 13 -19 24 -50 81 -7 12 -15 24 -18 27 -5 5 -10 13 -52 89 -11 20 -29 48 -39 63 -11 14 -19 29 -19 33 0 11 -28 35 -40 35 -14 0 -8 -140 11 -265 10 -67 41 -189 58 -230 52 -122 72 -167 123 -272 33 -68 65 -123 72 -123 6 0 20 19 29 43 10 23 26 60 36 82 l18 40 7 -40 c56 -314 54 -308 113 -346 155 -102 214 -139 222 -139 5 0 11 -4 13 -8 3 -10 204 -112 219 -112 5 0 28 -9 52 -19 38 -17 103 -38 307 -100 36 -11 115 -30 175 -41 61 -12 129 -26 152 -31 23 -5 58 -9 77 -9 55 0 47 28 -42 149 -43 58 -106 144 -140 191 -34 47 -65 90 -69 95 -5 6 -24 31 -42 56 -25 32 -47 49 -75 58 -23 6 -72 24 -110 39 l-69 26 54 11 c36 7 55 15 57 26 2 10 -45 64 -119 138 -91 90 -130 123 -158 130 -45 12 -196 31 -241 31 -46 0 -27 14 40 29 82 19 120 32 120 40 0 12 -32 45 -70 71 -19 13 -41 30 -48 37 -8 7 -30 26 -50 41 -21 15 -39 29 -42 32 -3 3 -26 22 -52 43 -26 21 -53 43 -60 50 -7 7 -29 24 -48 37 -19 13 -41 30 -48 37 -8 7 -30 26 -50 41 -21 15 -43 33 -50 40 -8 7 -30 25 -50 40 -21 15 -43 33 -50 40 -8 7 -30 25 -50 40 -21 15 -44 34 -52 42 -8 9 -34 30 -58 49 -38 29 -92 119 -92 151 0 6 -4 18 -10 28 -5 9 -28 58 -50 107 -22 50 -46 99 -52 110 -6 11 -18 32 -25 46 -18 37 -31 45 -78 52 -22 4 -55 9 -72 13 -27 5 -33 3 -33 -10z"/>
</g>
<g id="layer104" fill="#c7bd8a" stroke="none">
<path d="M1118 1965 c-5 -5 74 -147 99 -181 4 -5 13 -19 19 -30 6 -10 17 -30 25 -44 8 -14 16 -27 19 -30 3 -3 17 -26 30 -52 14 -27 28 -48 32 -48 5 0 8 -5 8 -10 0 -15 144 -238 177 -275 10 -11 34 -40 53 -65 19 -25 40 -51 47 -58 7 -7 29 -34 50 -60 21 -25 47 -56 58 -68 11 -12 58 -65 105 -119 47 -54 108 -123 137 -153 29 -31 50 -58 48 -60 -2 -3 -35 20 -72 51 -102 83 -290 286 -368 396 -22 31 -45 62 -52 69 -7 7 -13 17 -13 22 0 5 -6 15 -12 22 -12 13 -25 33 -52 83 -6 11 -13 22 -16 25 -5 5 -10 13 -52 89 -11 20 -29 48 -39 63 -11 14 -19 29 -19 33 0 11 -28 35 -40 35 -14 0 -8 -140 11 -265 10 -67 41 -189 58 -230 52 -122 72 -167 123 -272 33 -68 65 -123 72 -123 6 0 20 19 29 42 10 24 26 61 36 83 l18 40 7 -40 c56 -314 54 -308 113 -346 155 -102 214 -139 222 -139 5 0 11 -4 13 -8 3 -10 204 -112 219 -112 5 0 28 -9 52 -19 38 -17 103 -38 307 -100 36 -11 115 -30 175 -41 61 -12 129 -26 152 -31 23 -5 58 -9 77 -9 55 0 47 28 -42 149 -43 58 -106 144 -140 191 -34 47 -65 90 -69 95 -5 6 -24 31 -42 56 -25 32 -47 49 -75 58 -23 6 -72 24 -110 39 l-69 26 54 11 c36 7 55 15 57 26 2 10 -45 64 -119 138 -91 90 -130 123 -158 130 -45 12 -196 31 -241 31 -46 0 -27 14 40 29 82 19 120 32 120 40 0 12 -32 45 -70 71 -19 13 -41 30 -48 37 -8 7 -30 26 -50 41 -21 15 -39 29 -42 32 -3 3 -26 22 -52 43 -26 21 -53 43 -60 50 -7 7 -29 24 -48 37 -19 13 -41 30 -48 37 -8 7 -30 26 -50 41 -21 15 -43 33 -50 40 -8 7 -30 25 -50 40 -21 15 -43 33 -50 40 -8 7 -30 25 -50 40 -21 15 -44 34 -52 42 -8 9 -34 30 -58 49 -36 28 -92 118 -92 149 0 5 -9 27 -20 50 -11 22 -20 46 -20 51 0 18 -38 31 -93 31 -29 0 -56 -2 -59 -5z"/>
</g>
<g id="layer105" fill="#fbfbfb" stroke="none">
<path d="M5090 3375 l0 -65 -40 0 -40 0 0 -89 0 -90 -32 10 c-51 14 -155 11 -188 -6 -49 -25 -60 -60 -60 -185 l0 -110 50 0 50 0 0 91 c0 50 4 99 10 109 14 26 54 33 116 20 l54 -11 0 -105 0 -104 50 0 50 0 0 195 0 195 40 0 40 0 0 105 0 105 -50 0 -50 0 0 -65z"/>
<path d="M314 3333 c3 -43 9 -156 13 -251 6 -164 7 -174 27 -182 25 -9 104 -26 162 -35 l41 -6 -5 115 c-5 120 -3 127 36 107 66 -35 266 -101 362 -119 179 -34 250 -40 250 -19 0 11 -26 55 -40 67 -3 3 -20 24 -38 47 -29 36 -43 44 -120 68 -48 14 -96 30 -107 35 -11 4 -36 13 -55 20 -19 7 -50 19 -67 26 -18 8 -50 21 -70 30 -21 9 -47 20 -58 24 -11 5 -86 40 -167 79 -80 39 -152 71 -158 71 -10 0 -11 -19 -6 -77z"/>
<path d="M4315 3301 c-50 -22 -91 -69 -105 -119 -13 -48 -13 -166 0 -214 25 -88 102 -138 215 -138 153 0 225 79 225 245 0 117 -37 191 -114 226 -55 25 -166 25 -221 0z m161 -76 c103 -43 96 -265 -10 -304 -88 -33 -166 39 -166 154 1 69 31 132 72 150 42 18 61 18 104 0z"/>
<path d="M6855 3306 c-78 -35 -115 -109 -115 -229 0 -103 30 -173 92 -215 60 -39 214 -44 263 -8 16 11 16 16 4 50 -15 40 -10 40 -96 16 -36 -11 -47 -10 -79 6 -53 27 -76 63 -82 129 -6 68 18 136 55 161 29 19 86 22 151 10 l43 -9 -3 44 c-3 36 -7 44 -28 50 -44 12 -174 9 -205 -5z"/>
<path d="M7665 3301 c-50 -22 -91 -69 -105 -119 -13 -48 -13 -166 0 -214 25 -88 102 -138 215 -138 153 0 225 79 225 245 0 117 -37 191 -114 226 -55 25 -166 25 -221 0z m161 -76 c103 -43 96 -265 -10 -304 -88 -33 -166 39 -166 154 1 69 31 132 72 150 42 18 61 18 104 0z"/>
<path d="M3920 3115 l0 -195 -65 0 -65 0 0 -40 0 -40 185 0 185 0 0 40 0 40 -70 0 -70 0 0 195 0 195 -50 0 -50 0 0 -195z"/>
<path d="M5260 3075 l0 -235 45 0 45 0 2 162 3 161 104 -161 103 -162 59 0 59 0 0 235 0 235 -50 0 -50 0 -2 -159 -3 -160 -100 157 -101 157 -57 3 -57 3 0 -236z"/>
<path d="M5790 3075 l0 -235 50 0 50 0 0 96 0 96 81 -96 81 -96 54 0 c30 0 54 2 54 4 0 3 -40 53 -90 111 -49 58 -90 109 -90 113 0 4 34 48 76 97 41 50 84 102 95 118 l20 27 -58 0 -59 0 -82 -101 -82 -101 0 101 0 101 -50 0 -50 0 0 -235z"/>
<path d="M6220 3075 l0 -235 45 0 45 0 2 162 3 161 104 -161 103 -162 59 0 59 0 0 235 0 235 -50 0 -50 0 -2 -159 -3 -160 -100 157 -101 157 -57 3 -57 3 0 -236z"/>
<path d="M7270 3115 l0 -195 -65 0 -65 0 0 -40 0 -40 185 0 185 0 0 40 0 40 -70 0 -70 0 0 195 0 195 -50 0 -50 0 0 -195z"/>
<path d="M8100 3075 l0 -235 50 0 50 0 0 95 0 95 95 0 95 0 0 -95 0 -95 50 0 50 0 0 235 0 235 -50 0 -50 0 0 -100 0 -100 -95 0 -95 0 0 100 0 100 -50 0 -50 0 0 -235z"/>
<path d="M1246 3056 c3 -7 16 -18 30 -24 13 -7 24 -16 24 -22 0 -5 5 -10 11 -10 6 0 31 -13 56 -30 24 -16 46 -30 48 -30 2 0 21 -11 42 -25 35 -25 236 -125 249 -125 3 0 20 -6 37 -14 242 -110 604 -134 895 -59 34 9 64 14 66 12 4 -5 26 -936 26 -1117 0 -141 0 -143 -24 -151 -31 -12 -36 -29 -36 -117 l0 -74 49 0 c50 0 177 25 200 39 18 11 28 300 36 1054 l7 587 -21 0 c-12 0 -61 -13 -109 -30 -109 -37 -215 -64 -312 -80 -41 -6 -97 -16 -123 -21 -75 -14 -400 -10 -497 6 -134 22 -182 33 -255 57 -94 31 -276 116 -341 160 -46 31 -66 36 -58 14z"/>
<path d="M30 2653 c-1 -455 22 -1367 34 -1375 22 -15 112 -37 179 -44 l67 -7 0 95 c0 92 -1 95 -26 107 l-26 11 7 443 c7 458 19 794 29 804 3 4 39 -2 78 -11 285 -69 520 -57 814 40 149 49 179 71 139 104 -15 13 -39 11 -130 -10 -113 -25 -245 -40 -359 -40 -136 0 -330 23 -441 51 -22 6 -58 15 -80 21 -90 22 -121 31 -140 38 -44 17 -81 29 -112 35 l-33 7 0 -269z"/>
<path d="M1290 2690 c-47 -21 -96 -40 -110 -43 -14 -3 -43 -11 -65 -17 -174 -50 -319 -69 -557 -73 l-173 -4 -3 -184 c-5 -312 15 -1422 26 -1450 6 -15 21 -29 34 -32 13 -3 52 -13 88 -22 79 -21 337 -25 420 -6 107 23 256 68 323 96 31 13 37 20 37 45 0 38 -18 46 -73 31 -128 -34 -397 -30 -543 9 -40 11 -77 20 -80 20 -4 0 -4 109 0 243 3 133 9 432 13 663 l6 422 36 6 c20 3 62 6 95 6 32 0 75 4 95 9 20 5 61 15 91 22 88 19 164 46 263 94 112 53 247 139 247 158 0 19 -37 47 -63 46 -12 -1 -60 -18 -107 -39z"/>
<path d="M3833 2379 c-30 -9 -33 -13 -33 -51 l0 -41 53 9 c140 22 193 0 221 -93 7 -23 7 -23 -103 -23 l-111 0 0 -40 0 -39 110 -3 109 -3 -18 -41 c-15 -34 -28 -45 -64 -59 -42 -16 -49 -16 -100 -1 -30 9 -58 16 -61 16 -11 0 -37 -62 -32 -75 7 -20 72 -35 152 -35 140 0 213 73 222 219 7 130 -40 225 -130 257 -39 15 -169 16 -215 3z"/>
<path d="M4220 2344 c0 -44 1 -45 28 -42 41 5 58 -41 84 -230 l23 -162 148 0 147 0 0 235 0 235 -50 0 -50 0 0 -195 0 -195 -54 0 -54 0 -7 53 c-27 211 -52 307 -88 332 -13 9 -44 15 -74 15 l-53 0 0 -46z"/>
<path d="M6475 2371 c-50 -22 -91 -69 -105 -119 -13 -48 -13 -166 0 -214 25 -88 102 -138 215 -138 153 0 225 79 225 245 0 117 -37 191 -114 226 -55 25 -166 25 -221 0z m161 -76 c103 -43 96 -265 -10 -304 -88 -33 -166 39 -166 154 1 69 31 132 72 150 42 18 61 18 104 0z"/>
<path d="M4760 2145 l0 -235 140 0 140 0 0 40 0 40 -90 0 -90 0 0 55 0 55 85 0 85 0 0 40 0 40 -85 0 -85 0 0 60 0 60 90 0 90 0 0 40 0 40 -140 0 -140 0 0 -235z"/>
<path d="M5140 2145 l0 -235 50 0 50 0 0 96 0 96 81 -96 81 -96 54 0 c30 0 54 2 54 4 0 3 -40 53 -90 111 -49 58 -90 109 -90 113 0 4 34 48 76 97 41 50 84 102 95 118 l20 27 -58 0 -59 0 -82 -101 -82 -101 0 101 0 101 -50 0 -50 0 0 -235z"/>
<path d="M5660 2185 l0 -195 -65 0 -65 0 0 -40 0 -40 185 0 185 0 0 40 0 40 -70 0 -70 0 0 195 0 195 -50 0 -50 0 0 -195z"/>
<path d="M5960 2145 l0 -235 108 0 c130 0 179 18 205 73 55 115 -24 227 -160 227 l-53 0 0 85 0 85 -50 0 -50 0 0 -235z m185 -29 c64 -27 53 -106 -16 -120 -68 -13 -69 -13 -69 64 0 68 1 70 25 70 14 0 41 -6 60 -14z"/>
<path d="M6910 2145 l0 -235 50 0 50 0 0 95 0 95 95 0 95 0 0 -95 0 -95 50 0 50 0 0 235 0 235 -50 0 -50 0 0 -100 0 -100 -95 0 -95 0 0 100 0 100 -50 0 -50 0 0 -235z"/>
<path d="M7420 2145 l0 -235 45 0 45 0 2 162 3 161 104 -161 103 -162 59 0 59 0 0 235 0 235 -50 0 -50 0 -2 -159 -3 -160 -100 157 -101 157 -57 3 -57 3 0 -236z"/>
<path d="M7950 2145 l0 -235 45 0 45 0 2 162 3 161 104 -161 103 -162 59 0 59 0 0 235 0 235 -50 0 -50 0 -2 -159 -3 -160 -100 157 -101 157 -57 3 -57 3 0 -236z"/>
<path d="M1160 1878 c27 -46 53 -88 57 -94 4 -5 13 -19 19 -30 6 -10 17 -30 25 -44 8 -14 16 -27 19 -30 3 -3 17 -26 30 -52 14 -27 28 -48 32 -48 5 0 8 -5 8 -10 0 -15 144 -238 177 -275 10 -11 34 -40 53 -65 19 -25 40 -51 47 -58 7 -7 29 -34 50 -60 21 -25 47 -56 58 -68 11 -12 58 -65 105 -119 47 -54 108 -123 137 -153 29 -31 50 -58 48 -60 -2 -3 -35 20 -72 51 -102 83 -290 286 -368 396 -22 31 -45 62 -52 69 -7 7 -13 17 -13 22 0 5 -6 15 -12 22 -7 8 -18 23 -24 33 -32 57 -39 70 -44 75 -5 5 -10 13 -52 89 -11 20 -29 48 -39 63 -11 14 -19 29 -19 33 0 11 -28 35 -40 35 -14 0 -8 -140 11 -265 10 -67 41 -189 58 -230 52 -122 72 -167 123 -272 33 -68 65 -123 72 -123 6 0 20 19 29 42 10 24 26 61 36 83 l18 40 7 -40 c56 -314 54 -308 113 -346 155 -102 214 -139 222 -139 5 0 11 -4 13 -8 3 -10 204 -112 219 -112 5 0 28 -9 52 -19 38 -17 103 -38 307 -100 36 -11 115 -30 175 -41 61 -12 129 -26 152 -31 23 -5 58 -9 77 -9 55 0 47 28 -42 149 -43 58 -106 144 -140 191 -34 47 -65 90 -69 95 -5 6 -24 31 -42 56 -25 32 -47 49 -75 58 -23 6 -72 24 -110 39 l-69 26 54 11 c36 7 55 15 57 26 2 10 -45 64 -119 138 -91 90 -130 123 -158 130 -45 12 -196 31 -241 31 -46 0 -27 14 40 29 82 19 120 32 120 40 0 12 -32 45 -70 71 -19 13 -41 30 -48 37 -8 7 -30 26 -50 41 -21 15 -39 29 -42 32 -3 3 -26 22 -52 43 -26 21 -53 43 -60 50 -7 7 -29 24 -48 37 -19 13 -41 30 -48 37 -8 7 -30 26 -50 41 -21 15 -43 33 -50 40 -8 7 -30 25 -50 40 -21 15 -43 33 -50 40 -8 7 -30 25 -50 40 -21 15 -44 34 -52 42 -8 9 -34 30 -58 49 -37 29 -92 118 -92 150 0 4 -6 21 -14 37 -8 16 -19 41 -25 57 -10 26 -13 27 -85 27 l-74 0 48 -82z"/>
<path d="M3840 1225 l0 -235 64 0 64 0 38 108 c21 59 47 134 59 166 l22 59 17 -44 c9 -24 36 -98 60 -164 l44 -120 66 -3 66 -3 0 236 0 235 -50 0 -49 0 -3 -146 -3 -146 -34 93 c-18 52 -42 118 -53 147 l-20 53 -45 -3 -46 -3 -53 -150 -53 -150 0 153 -1 152 -45 0 -45 0 0 -235z"/>
<path d="M4400 1451 c0 -7 121 -331 165 -443 6 -14 19 -18 60 -18 l52 0 86 230 c48 126 87 232 87 235 0 3 -24 5 -53 5 l-52 0 -21 -57 -20 -58 -80 -3 -80 -3 -20 58 -21 58 -52 3 c-28 2 -51 -1 -51 -7z m255 -253 c-12 -35 -24 -69 -26 -76 -3 -8 -17 20 -31 62 l-27 76 53 0 54 0 -23 -62z"/>
<path d="M4900 1225 l0 -235 50 0 50 0 0 96 0 96 81 -96 81 -96 54 0 c30 0 54 2 54 4 0 3 -40 53 -90 111 -49 58 -90 109 -90 113 0 4 34 48 76 97 41 50 84 102 95 118 l20 27 -58 0 -59 0 -82 -101 -82 -101 0 101 0 101 -50 0 -50 0 0 -235z"/>
<path d="M5420 1265 l0 -195 -65 0 -65 0 0 -40 0 -40 185 0 185 0 0 40 0 40 -70 0 -70 0 0 195 0 195 -50 0 -50 0 0 -195z"/>
<path d="M5660 1451 c0 -7 121 -331 165 -443 6 -14 19 -18 60 -18 l52 0 86 230 c48 126 87 232 87 235 0 3 -24 5 -53 5 l-52 0 -21 -57 -20 -58 -80 -3 -80 -3 -20 58 -21 58 -52 3 c-28 2 -51 -1 -51 -7z m255 -253 c-12 -35 -24 -69 -26 -76 -3 -8 -17 20 -31 62 l-27 76 53 0 54 0 -23 -62z"/>
<path d="M6170 1225 l0 -235 155 0 155 0 0 40 0 40 -105 0 -105 0 0 55 0 55 63 0 c110 0 171 50 171 140 0 59 -23 96 -75 122 -26 14 -59 18 -146 18 l-113 0 0 -235z m216 134 c8 -6 14 -24 14 -39 0 -37 -18 -49 -79 -57 l-51 -6 0 63 0 63 51 -6 c28 -4 57 -12 65 -18z"/>
<path d="M6590 1225 l0 -235 45 0 45 0 2 162 3 161 104 -161 103 -162 59 0 59 0 0 235 0 235 -50 0 -50 0 -2 -159 -3 -160 -100 157 -101 157 -57 3 -57 3 0 -236z"/>
</g>


</svg>