<!DOCTYPE svg PUBLIC "-//W3C//DTD SVG 20010904//EN" "http://www.w3.org/TR/2001/REC-SVG-20010904/DTD/svg10.dtd">
<svg version="1.0" xmlns="http://www.w3.org/2000/svg" width="865px" height="369px" viewBox="0 0 8650 3690" preserveAspectRatio="xMidYMid meet">
<g id="layer101" fill="#07294d" stroke="none">
<path d="M5060 3345 l0 -65 -40 0 -40 0 0 -89 0 -90 -32 10 c-51 14 -155 11 -188 -6 -49 -25 -60 -60 -60 -185 l0 -110 50 0 50 0 0 91 c0 50 4 99 10 109 14 26 54 33 116 20 l54 -11 0 -105 0 -104 50 0 50 0 0 195 0 195 40 0 40 0 0 105 0 105 -50 0 -50 0 0 -65z"/>
<path d="M295 3143 c4 -126 11 -237 15 -249 7 -17 25 -24 92 -37 132 -27 122 -36 115 98 -3 63 -4 115 -2 115 3 0 56 -20 117 -45 164 -66 410 -121 502 -113 l39 3 -60 75 -60 75 -130 42 c-142 46 -361 137 -515 214 -54 27 -103 49 -109 49 -8 0 -9 -62 -4 -227z"/>
<path d="M4285 3271 c-50 -22 -91 -69 -105 -119 -13 -48 -13 -166 0 -214 25 -88 102 -138 215 -138 153 0 225 79 225 245 0 117 -37 191 -114 226 -55 25 -166 25 -221 0z m161 -76 c103 -43 96 -265 -10 -304 -88 -33 -166 39 -166 154 1 69 31 132 72 150 42 18 61 18 104 0z"/>
<path d="M6825 3276 c-78 -35 -115 -109 -115 -229 0 -103 30 -173 92 -215 60 -39 214 -44 263 -8 16 11 16 16 4 50 -15 40 -10 40 -96 16 -36 -11 -47 -10 -79 6 -53 27 -76 63 -82 129 -6 68 18 136 55 161 29 19 86 22 151 10 l43 -9 -3 44 c-3 36 -7 44 -28 50 -44 12 -174 9 -205 -5z"/>
<path d="M7635 3271 c-50 -22 -91 -69 -105 -119 -13 -48 -13 -166 0 -214 25 -88 102 -138 215 -138 153 0 225 79 225 245 0 117 -37 191 -114 226 -55 25 -166 25 -221 0z m161 -76 c103 -43 96 -265 -10 -304 -88 -33 -166 39 -166 154 1 69 31 132 72 150 42 18 61 18 104 0z"/>
<path d="M3890 3085 l0 -195 -65 0 -65 0 0 -40 0 -40 185 0 185 0 0 40 0 40 -70 0 -70 0 0 195 0 195 -50 0 -50 0 0 -195z"/>
<path d="M5230 3045 l0 -235 45 0 45 0 2 162 3 161 104 -161 103 -162 59 0 59 0 0 235 0 235 -50 0 -50 0 -2 -159 -3 -160 -100 157 -101 157 -57 3 -57 3 0 -236z"/>
<path d="M5760 3045 l0 -235 50 0 50 0 0 96 0 96 81 -96 81 -96 54 0 c30 0 54 2 54 4 0 3 -40 53 -90 111 -49 58 -90 109 -90 113 0 4 34 48 76 97 41 50 84 102 95 118 l20 27 -58 0 -59 0 -82 -101 -82 -101 0 101 0 101 -50 0 -50 0 0 -235z"/>
<path d="M6190 3045 l0 -235 45 0 45 0 2 162 3 161 104 -161 103 -162 59 0 59 0 0 235 0 235 -50 0 -50 0 -2 -159 -3 -160 -100 157 -101 157 -57 3 -57 3 0 -236z"/>
<path d="M7240 3085 l0 -195 -65 0 -65 0 0 -40 0 -40 185 0 185 0 0 40 0 40 -70 0 -70 0 0 195 0 195 -50 0 -50 0 0 -195z"/>
<path d="M8070 3045 l0 -235 50 0 50 0 0 95 0 95 95 0 95 0 0 -95 0 -95 50 0 50 0 0 235 0 235 -50 0 -50 0 0 -100 0 -100 -95 0 -95 0 0 100 0 100 -50 0 -50 0 0 -235z"/>
<path d="M5 2423 c13 -882 21 -1164 36 -1173 18 -12 123 -37 187 -45 l52 -7 0 96 c0 90 -1 96 -20 96 -12 0 -24 10 -30 24 -16 42 15 1256 32 1256 6 0 38 -7 71 -16 288 -74 586 -55 875 58 56 22 102 43 102 47 0 4 -9 16 -19 25 -19 17 -24 17 -108 -2 -160 -37 -245 -45 -437 -39 -233 8 -407 39 -646 117 -50 16 -94 30 -97 30 -2 0 -2 -210 2 -467z"/>
<path d="M1268 2659 c-211 -86 -428 -127 -716 -136 l-192 -6 -7 -26 c-7 -29 14 -1474 23 -1562 l6 -56 67 -21 c134 -43 345 -48 508 -12 146 33 323 100 323 122 -1 38 -14 42 -112 28 -151 -20 -365 -16 -478 10 -52 12 -99 26 -104 31 -8 8 10 1318 19 1327 2 2 50 8 107 12 216 18 409 83 607 205 114 70 119 77 85 104 -15 12 -29 21 -33 20 -3 0 -50 -18 -103 -40z"/>
<path d="M3803 2349 c-30 -9 -33 -13 -33 -51 l0 -41 53 9 c140 22 193 0 221 -93 7 -23 7 -23 -103 -23 l-111 0 0 -40 0 -39 110 -3 109 -3 -18 -41 c-15 -34 -28 -45 -64 -59 -42 -16 -49 -16 -100 -1 -30 9 -58 16 -61 16 -11 0 -37 -62 -32 -75 7 -20 72 -35 152 -35 140 0 213 73 222 219 7 130 -40 225 -130 257 -39 15 -169 16 -215 3z"/>
<path d="M4190 2314 c0 -44 1 -45 28 -42 41 5 58 -41 84 -230 l23 -162 148 0 147 0 0 235 0 235 -50 0 -50 0 0 -195 0 -195 -54 0 -54 0 -7 53 c-27 211 -52 307 -88 332 -13 9 -44 15 -74 15 l-53 0 0 -46z"/>
<path d="M6445 2341 c-50 -22 -91 -69 -105 -119 -13 -48 -13 -166 0 -214 25 -88 102 -138 215 -138 153 0 225 79 225 245 0 117 -37 191 -114 226 -55 25 -166 25 -221 0z m161 -76 c103 -43 96 -265 -10 -304 -88 -33 -166 39 -166 154 1 69 31 132 72 150 42 18 61 18 104 0z"/>
<path d="M4730 2115 l0 -235 140 0 140 0 0 40 0 40 -90 0 -90 0 0 55 0 55 85 0 85 0 0 40 0 40 -85 0 -85 0 0 60 0 60 90 0 90 0 0 40 0 40 -140 0 -140 0 0 -235z"/>
<path d="M5110 2115 l0 -235 50 0 50 0 0 96 0 96 81 -96 81 -96 54 0 c30 0 54 2 54 4 0 3 -40 53 -90 111 -49 58 -90 109 -90 113 0 4 34 48 76 97 41 50 84 102 95 118 l20 27 -58 0 -59 0 -82 -101 -82 -101 0 101 0 101 -50 0 -50 0 0 -235z"/>
<path d="M5630 2155 l0 -195 -65 0 -65 0 0 -40 0 -40 185 0 185 0 0 40 0 40 -70 0 -70 0 0 195 0 195 -50 0 -50 0 0 -195z"/>
<path d="M5930 2115 l0 -235 108 0 c130 0 179 18 205 73 55 115 -24 227 -160 227 l-53 0 0 85 0 85 -50 0 -50 0 0 -235z m185 -29 c64 -27 53 -106 -16 -120 -68 -13 -69 -13 -69 64 0 68 1 70 25 70 14 0 41 -6 60 -14z"/>
<path d="M6880 2115 l0 -235 50 0 50 0 0 95 0 95 95 0 95 0 0 -95 0 -95 50 0 50 0 0 235 0 235 -50 0 -50 0 0 -100 0 -100 -95 0 -95 0 0 100 0 100 -50 0 -50 0 0 -235z"/>
<path d="M7390 2115 l0 -235 45 0 45 0 2 162 3 161 104 -161 103 -162 59 0 59 0 0 235 0 235 -50 0 -50 0 -2 -159 -3 -160 -100 157 -101 157 -57 3 -57 3 0 -236z"/>
<path d="M7920 2115 l0 -235 45 0 45 0 2 162 3 161 104 -161 103 -162 59 0 59 0 0 235 0 235 -50 0 -50 0 -2 -159 -3 -160 -100 157 -101 157 -57 3 -57 3 0 -236z"/>
<path d="M960 2156 c0 -17 37 -96 49 -106 3 -3 12 -15 19 -27 31 -57 38 -68 49 -80 6 -7 42 -64 79 -126 241 -402 297 -488 420 -637 111 -135 287 -339 450 -519 27 -30 42 -51 34 -46 -37 21 -161 126 -225 191 -212 214 -317 349 -465 599 -87 147 -105 173 -116 162 -7 -7 12 -215 27 -297 17 -86 45 -171 100 -303 62 -148 128 -277 141 -277 5 0 26 37 47 82 l38 82 11 -49 c7 -28 19 -95 28 -150 23 -141 32 -157 133 -224 135 -89 254 -159 334 -196 108 -50 347 -129 510 -170 140 -34 346 -69 356 -60 8 9 -18 53 -91 152 -40 54 -100 136 -133 182 -131 182 -132 184 -247 226 -57 21 -107 41 -111 46 -5 4 13 10 40 14 80 11 84 18 38 67 -64 69 -198 199 -220 214 -12 7 -85 21 -163 31 -78 9 -142 20 -142 23 0 3 43 16 95 29 52 13 97 26 100 31 4 6 -141 128 -256 215 -27 20 -138 109 -239 191 -89 71 -200 161 -266 214 -58 47 -63 55 -109 167 -54 134 -81 196 -101 236 -52 101 -53 102 -109 110 -22 4 -55 9 -72 13 -27 5 -33 3 -33 -10z"/>
<path d="M3810 1195 l0 -235 64 0 64 0 38 108 c21 59 47 134 59 166 l22 59 17 -44 c9 -24 36 -98 60 -164 l44 -120 66 -3 66 -3 0 236 0 235 -50 0 -49 0 -3 -146 -3 -146 -34 93 c-18 52 -42 118 -53 147 l-20 53 -45 -3 -46 -3 -53 -150 -53 -150 0 153 -1 152 -45 0 -45 0 0 -235z"/>
<path d="M4370 1421 c0 -7 121 -331 165 -443 6 -14 19 -18 60 -18 l52 0 86 230 c48 126 87 232 87 235 0 3 -24 5 -53 5 l-52 0 -21 -57 -20 -58 -80 -3 -80 -3 -20 58 -21 58 -52 3 c-28 2 -51 -1 -51 -7z m255 -253 c-12 -35 -24 -69 -26 -76 -3 -8 -17 20 -31 62 l-27 76 53 0 54 0 -23 -62z"/>
<path d="M4870 1195 l0 -235 50 0 50 0 0 96 0 96 81 -96 81 -96 54 0 c30 0 54 2 54 4 0 3 -40 53 -90 111 -49 58 -90 109 -90 113 0 4 34 48 76 97 41 50 84 102 95 118 l20 27 -58 0 -59 0 -82 -101 -82 -101 0 101 0 101 -50 0 -50 0 0 -235z"/>
<path d="M5390 1235 l0 -195 -65 0 -65 0 0 -40 0 -40 185 0 185 0 0 40 0 40 -70 0 -70 0 0 195 0 195 -50 0 -50 0 0 -195z"/>
<path d="M5630 1421 c0 -7 121 -331 165 -443 6 -14 19 -18 60 -18 l52 0 86 230 c48 126 87 232 87 235 0 3 -24 5 -53 5 l-52 0 -21 -57 -20 -58 -80 -3 -80 -3 -20 58 -21 58 -52 3 c-28 2 -51 -1 -51 -7z m255 -253 c-12 -35 -24 -69 -26 -76 -3 -8 -17 20 -31 62 l-27 76 53 0 54 0 -23 -62z"/>
<path d="M6140 1195 l0 -235 155 0 155 0 0 40 0 40 -105 0 -105 0 0 55 0 55 63 0 c110 0 171 50 171 140 0 59 -23 96 -75 122 -26 14 -59 18 -146 18 l-113 0 0 -235z m216 134 c8 -6 14 -24 14 -39 0 -37 -18 -49 -79 -57 l-51 -6 0 63 0 63 51 -6 c28 -4 57 -12 65 -18z"/>
<path d="M6560 1195 l0 -235 45 0 45 0 2 162 3 161 104 -161 103 -162 59 0 59 0 0 235 0 235 -50 0 -50 0 -2 -159 -3 -160 -100 157 -101 157 -57 3 -57 3 0 -236z"/>
</g>
<g id="layer102" fill="#c41c3f" stroke="none">
<path d="M1202 2978 c39 -56 229 -241 308 -299 215 -159 428 -244 675 -270 55 -6 109 -12 121 -14 20 -4 20 -12 32 -572 7 -312 12 -611 12 -665 l0 -96 -32 -12 -33 -11 35 -32 c19 -17 34 -38 32 -48 -3 -20 75 -92 93 -85 8 3 32 10 54 16 22 6 45 19 50 28 10 19 32 1499 24 1583 l-5 46 -111 6 c-62 4 -145 7 -185 7 -194 0 -510 77 -692 170 -139 70 -306 189 -358 255 -30 37 -47 31 -20 -7z"/>
</g>
<g id="layer103" fill="#a94f32" stroke="none">
</g>
<g id="layer104" fill="#41b552" stroke="none">
<path d="M2505 3345 c-327 -162 -609 -255 -880 -291 -162 -22 -287 -10 -452 41 -13 4 -23 3 -23 -1 0 -14 186 -90 275 -114 270 -70 613 -37 892 86 112 50 101 60 95 -78 l-5 -121 39 7 c21 4 69 14 106 23 l67 16 5 41 c3 23 7 132 10 244 5 157 3 202 -7 202 -6 0 -61 -25 -122 -55z"/>
</g>
<g id="layer105" fill="#ffc600" stroke="none">
<path d="M960 2156 c0 -17 37 -96 49 -106 3 -3 12 -15 19 -27 52 -94 50 -93 126 -93 67 0 74 5 56 38 -5 9 -18 35 -28 57 -55 115 -59 120 -117 128 -22 4 -55 9 -72 13 -27 5 -33 3 -33 -10z"/>
</g>
<g id="layer106" fill="#d7d7d7" stroke="none">
<path d="M1216 3026 c3 -7 16 -18 30 -24 13 -7 24 -16 24 -22 0 -5 5 -10 11 -10 6 0 31 -13 56 -30 24 -16 46 -30 48 -30 2 0 21 -11 42 -25 35 -25 236 -125 249 -125 3 0 20 -6 37 -14 242 -110 604 -134 895 -59 34 9 64 14 66 12 4 -5 26 -936 26 -1117 0 -141 0 -143 -24 -151 -31 -12 -36 -29 -36 -117 l0 -74 49 0 c50 0 177 25 200 39 18 11 28 300 36 1054 l7 587 -21 0 c-12 0 -61 -13 -109 -30 -109 -37 -215 -64 -312 -80 -41 -6 -97 -16 -123 -21 -75 -14 -400 -10 -497 6 -134 22 -182 33 -255 57 -94 31 -276 116 -341 160 -46 31 -66 36 -58 14z"/>
</g>


</svg>